# xmcd
#
# Track frame offsets:
#	150
#	28052
#	70354
#	123756
#	176933
#	238735
#	288462
#
# Disc length: 4197 seconds
#
# Revision: 1
# Processed by: cddbd v1.5.1PL0 Copyright (c) Steve Scherf et al.
# Submitted via: CDex 1.50Beta5
#
DISCID=67106307
DTITLE=かわの亜衣 その他 - 月刊『裏声優』
DYEAR=1900
DGENRE=
TTITLE0=オープニング
TTITLE1=ふぁみりマン 第十三話
TTITLE2=妄想日記〜そのいち〜
TTITLE3=龍子の部屋 4169回
TTITLE4=妄想日記〜そのに〜
TTITLE5=ふぁみりマン 第二十五話
TTITLE6=エンディング
EXTD=
EXTT0=
EXTT1=
EXTT2=
EXTT3=
EXTT4=
EXTT5=
EXTT6=
PLAYORDER=
